<svg width="305" height="226" viewBox="0 0 305 226" fill="none" xmlns="http://www.w3.org/2000/svg">
<g clip-path="url(#clip0_280_1128)">
<path d="M288.283 226L288.63 225.352C283.973 222.809 278.176 219.645 275.149 214.453C272.165 209.334 272.098 202.383 274.974 196.312C277.422 191.146 281.919 186.517 287.979 182.927C289.174 182.219 290.428 181.547 291.642 180.898C294.575 179.329 297.608 177.707 300.108 175.405C303.552 172.234 306.158 166.914 304.216 162.174C303.577 160.662 302.531 159.36 301.196 158.418C299.862 157.475 298.292 156.929 296.665 156.842L296.624 157.578C298.114 157.658 299.552 158.157 300.775 159.021C301.999 159.884 302.957 161.076 303.543 162.461C305.348 166.865 302.872 171.863 299.616 174.86C297.184 177.099 294.193 178.699 291.3 180.247C290.08 180.9 288.818 181.575 287.609 182.291C281.423 185.956 276.826 190.695 274.315 195.994C271.335 202.283 271.414 209.499 274.52 214.827C277.65 220.196 283.545 223.414 288.283 226Z" fill="#F1F1F1"/>
<path d="M292.036 160.727C295.566 160.727 298.427 159.324 298.427 157.594C298.427 155.864 295.566 154.461 292.036 154.461C288.507 154.461 285.646 155.864 285.646 157.594C285.646 159.324 288.507 160.727 292.036 160.727Z" fill="#F1F1F1"/>
<path d="M286.924 181.37C290.453 181.37 293.314 179.967 293.314 178.237C293.314 176.506 290.453 175.103 286.924 175.103C283.394 175.103 280.533 176.506 280.533 178.237C280.533 179.967 283.394 181.37 286.924 181.37Z" fill="#F1F1F1"/>
<path d="M298.609 184.687C302.139 184.687 305 183.285 305 181.554C305 179.824 302.139 178.421 298.609 178.421C295.08 178.421 292.219 179.824 292.219 181.554C292.219 183.285 295.08 184.687 298.609 184.687Z" fill="#F1F1F1"/>
<path d="M280.351 202.013C283.88 202.013 286.741 200.61 286.741 198.879C286.741 197.149 283.88 195.746 280.351 195.746C276.821 195.746 273.96 197.149 273.96 198.879C273.96 200.61 276.821 202.013 280.351 202.013Z" fill="#F1F1F1"/>
<path d="M267.569 202.013C271.099 202.013 273.96 200.61 273.96 198.879C273.96 197.149 271.099 195.746 267.569 195.746C264.04 195.746 261.179 197.149 261.179 198.879C261.179 200.61 264.04 202.013 267.569 202.013Z" fill="#F1F1F1"/>
<path d="M50.1337 162.002H27.4582C26.8442 162.002 26.2555 161.755 25.8213 161.317C25.3871 160.879 25.1428 160.284 25.1421 159.664V84.2457C25.1428 83.6259 25.3871 83.0317 25.8213 82.5934C26.2555 82.1552 26.8442 81.9086 27.4582 81.908H50.1337C50.7477 81.9086 51.3364 82.1552 51.7706 82.5934C52.2048 83.0317 52.4491 83.6259 52.4498 84.2457V159.664C52.4491 160.284 52.2048 160.879 51.7706 161.317C51.3364 161.755 50.7477 162.002 50.1337 162.002Z" fill="#FC5404"/>
<path d="M91.4853 162.002H68.8097C68.1957 162.002 67.607 161.755 67.1728 161.317C66.7386 160.879 66.4944 160.284 66.4937 159.665V54.3178C66.4944 53.698 66.7386 53.1038 67.1728 52.6656C67.607 52.2273 68.1957 51.9808 68.8097 51.9801H91.4853C92.0993 51.9808 92.688 52.2273 93.1222 52.6656C93.5564 53.1038 93.8006 53.698 93.8014 54.3178V159.665C93.8006 160.284 93.5564 160.879 93.1222 161.317C92.688 161.755 92.0993 162.002 91.4853 162.002Z" fill="#FC5404"/>
<path d="M132.837 162.002H110.161C109.547 162.002 108.959 161.755 108.525 161.317C108.09 160.879 107.846 160.284 107.845 159.664V84.2457C107.846 83.6259 108.09 83.0317 108.525 82.5934C108.959 82.1552 109.547 81.9086 110.161 81.908H132.837C133.451 81.9086 134.04 82.1552 134.474 82.5934C134.908 83.0317 135.152 83.6259 135.153 84.2457V159.664C135.152 160.284 134.908 160.879 134.474 161.317C134.04 161.755 133.451 162.002 132.837 162.002Z" fill="#FC5404"/>
<path d="M174.189 162.002H151.513C150.913 162.015 150.332 161.788 149.898 161.369C149.464 160.951 149.212 160.376 149.197 159.77V42.3983C149.212 41.7926 149.464 41.2176 149.898 40.7993C150.332 40.381 150.913 40.1534 151.513 40.1664H174.189C174.789 40.1534 175.369 40.381 175.803 40.7993C176.238 41.2176 176.49 41.7926 176.505 42.3983V159.77C176.49 160.376 176.238 160.951 175.803 161.369C175.369 161.788 174.789 162.015 174.189 162.002Z" fill="#FC5404"/>
<path d="M215.54 162.002H192.865C192.251 162.002 191.662 161.755 191.228 161.317C190.794 160.879 190.549 160.284 190.549 159.665V21.2396C190.549 20.6198 190.794 20.0256 191.228 19.5873C191.662 19.1491 192.251 18.9025 192.865 18.9019H215.54C216.154 18.9025 216.743 19.1491 217.177 19.5873C217.611 20.0256 217.856 20.6198 217.856 21.2396V159.665C217.856 160.284 217.611 160.879 217.177 161.317C216.743 161.755 216.154 162.002 215.54 162.002Z" fill="#FC5404"/>
<path d="M38.7958 72.457C41.3812 72.457 43.4771 70.3414 43.4771 67.7316C43.4771 65.1218 41.3812 63.0061 38.7958 63.0061C36.2104 63.0061 34.1145 65.1218 34.1145 67.7316C34.1145 70.3414 36.2104 72.457 38.7958 72.457Z" fill="#3F3D56"/>
<path d="M80.1475 41.7416C82.7329 41.7416 84.8288 39.6259 84.8288 37.0161C84.8288 34.4063 82.7329 32.2906 80.1475 32.2906C77.5621 32.2906 75.4662 34.4063 75.4662 37.0161C75.4662 39.6259 77.5621 41.7416 80.1475 41.7416Z" fill="#3F3D56"/>
<path d="M121.499 72.457C124.085 72.457 126.181 70.3414 126.181 67.7316C126.181 65.1218 124.085 63.0061 121.499 63.0061C118.914 63.0061 116.818 65.1218 116.818 67.7316C116.818 70.3414 118.914 72.457 121.499 72.457Z" fill="#3F3D56"/>
<path d="M162.851 26.7776C165.436 26.7776 167.532 24.6619 167.532 22.0521C167.532 19.4423 165.436 17.3267 162.851 17.3267C160.265 17.3267 158.17 19.4423 158.17 22.0521C158.17 24.6619 160.265 26.7776 162.851 26.7776Z" fill="#3F3D56"/>
<path d="M204.202 9.45093C206.788 9.45093 208.884 7.33527 208.884 4.72546C208.884 2.11566 206.788 0 204.202 0C201.617 0 199.521 2.11566 199.521 4.72546C199.521 7.33527 201.617 9.45093 204.202 9.45093Z" fill="#3F3D56"/>
<path d="M242.112 162.88H0.365176C0.268325 162.88 0.175441 162.841 0.106957 162.772C0.0384735 162.703 0 162.609 0 162.511C0 162.414 0.0384735 162.32 0.106957 162.251C0.175441 162.182 0.268325 162.143 0.365176 162.143H242.112C242.209 162.143 242.302 162.182 242.37 162.251C242.439 162.32 242.477 162.414 242.477 162.511C242.477 162.609 242.439 162.703 242.37 162.772C242.302 162.841 242.209 162.88 242.112 162.88Z" fill="#CBCBCB"/>
<path d="M302.366 225.914H184.049C183.952 225.914 183.859 225.875 183.791 225.806C183.722 225.737 183.684 225.643 183.684 225.545C183.684 225.447 183.722 225.354 183.791 225.285C183.859 225.215 183.952 225.177 184.049 225.177H302.366C302.463 225.177 302.556 225.215 302.624 225.285C302.693 225.354 302.731 225.447 302.731 225.545C302.731 225.643 302.693 225.737 302.624 225.806C302.556 225.875 302.463 225.914 302.366 225.914Z" fill="#CBCBCB"/>
<path d="M226.386 156.888C226.686 156.587 226.917 156.223 227.063 155.822C227.209 155.421 227.266 154.992 227.23 154.566C227.194 154.141 227.066 153.728 226.855 153.357C226.643 152.987 226.354 152.668 226.008 152.422L227.444 145.902L223.731 144.054L221.831 153.292C221.461 153.907 221.328 154.637 221.456 155.345C221.584 156.053 221.965 156.689 222.526 157.132C223.087 157.575 223.79 157.795 224.502 157.751C225.213 157.706 225.883 157.399 226.386 156.888Z" fill="#FFB7B7"/>
<path d="M266.987 157.031C267.263 156.708 267.466 156.327 267.581 155.915C267.695 155.504 267.719 155.072 267.651 154.65C267.582 154.229 267.423 153.827 267.184 153.474C266.945 153.122 266.633 152.826 266.268 152.608L267.2 145.995L263.357 144.443L262.171 153.801C261.849 154.443 261.772 155.182 261.954 155.878C262.136 156.573 262.564 157.178 263.158 157.576C263.751 157.974 264.469 158.138 265.175 158.038C265.881 157.938 266.526 157.58 266.987 157.031Z" fill="#FFB7B7"/>
<path d="M238.044 221.938L234.258 221.937L232.457 207.196L238.045 207.197L238.044 221.938Z" fill="#FFB7B7"/>
<path d="M239.01 225.642L226.802 225.642V225.486C226.802 224.214 227.303 222.994 228.194 222.094C229.085 221.195 230.294 220.69 231.554 220.69L239.01 220.69L239.01 225.642Z" fill="#2F2E41"/>
<path d="M250.706 221.938L246.92 221.937L245.119 207.196L250.707 207.197L250.706 221.938Z" fill="#FFB7B7"/>
<path d="M251.672 225.642L239.464 225.642V225.486C239.464 224.214 239.965 222.994 240.856 222.094C241.747 221.195 242.955 220.69 244.216 220.69L251.672 220.69L251.672 225.642Z" fill="#2F2E41"/>
<path d="M258.329 97.9165L262.412 96.4293C262.412 96.4293 264.145 96.8008 264.145 101.544C264.145 106.288 268.747 150.527 268.747 150.527L260.693 152.668L256.141 110.696L258.329 97.9165Z" fill="#2F2E41"/>
<path d="M231.048 97.9165L226.966 96.4293C226.966 96.4293 225.233 96.8008 225.233 101.544C225.233 106.288 220.631 150.527 220.631 150.527L228.685 152.668L233.237 110.696L231.048 97.9165Z" fill="#2F2E41"/>
<path d="M231.101 148.372L229.985 181.604L232.456 218.364L238.821 218.512L239.748 184.222L244.998 167.076L244.468 217.611L251.676 217.524L256.141 182.756C256.141 182.756 262.037 153.983 258.767 148.372L243.71 143.318L231.101 148.372Z" fill="#2F2E41"/>
<path d="M231.224 144.368L230.86 152.362C230.86 152.362 235.94 154.914 244.87 153.359C253.799 151.805 259.735 152.829 259.735 152.829L259.049 142.639L231.224 144.368Z" fill="#E5E5E5"/>
<path d="M226.803 96.5474L238.545 91.3537L239.246 88.6334L250.668 88.9674L251.162 91.7464L262.412 96.4293L257.455 113.827L257.964 126.066L264.145 148.372C264.145 148.372 258.931 152.841 246.406 150.918L244.244 146.522L242.922 151.171C242.922 151.171 231.939 155.25 228.895 149.941L231.101 111.587L226.803 96.5474Z" fill="#2F2E41"/>
<path d="M244.853 86.0779C249.042 86.0779 252.438 82.65 252.438 78.4214C252.438 74.1928 249.042 70.7649 244.853 70.7649C240.664 70.7649 237.268 74.1928 237.268 78.4214C237.268 82.65 240.664 86.0779 244.853 86.0779Z" fill="#FFB7B7"/>
<path d="M253.866 75.4546C253.73 74.8315 253.469 74.2431 253.099 73.7258C252.952 72.2954 252.479 70.9187 251.718 69.703C251.42 69.1333 250.996 68.6401 250.48 68.2611C249.889 67.9175 249.215 67.7477 248.533 67.7711C248.409 67.769 248.187 67.8068 247.987 67.816C247.859 67.776 247.73 67.7403 247.6 67.7067C247.524 67.5368 247.374 67.0418 247.333 67.0754L246.768 67.5285C246.529 67.4866 246.289 67.454 246.048 67.4281C245.96 67.1755 245.872 66.9228 245.784 66.6702C245.642 66.8962 245.517 67.1329 245.411 67.3784C245.171 67.3665 244.931 67.3623 244.691 67.3659L244.211 66.9002C244.182 67.0301 244.117 67.1488 244.023 67.2418C243.929 67.3349 243.81 67.3982 243.681 67.424C243.46 67.4469 243.24 67.4768 243.021 67.5124C243.003 67.5123 242.985 67.5124 242.967 67.512C241.784 67.4822 240.512 67.4287 239.523 68.0841C239.06 68.4048 238.684 68.8364 238.427 69.3401C238.306 69.4232 238.184 69.5057 238.066 69.5938C237.67 69.8669 237.326 70.2109 237.052 70.6089C236.853 70.9522 236.702 71.3216 236.603 71.7068C236.226 72.866 236.051 74.0825 236.086 75.3022C236.127 76.5302 236.586 77.7064 237.386 78.6324C237.893 79.1825 238.538 79.5887 239.046 80.1381C240.092 81.2694 240.288 82.8473 241.182 84.0444C242.128 85.3105 243.855 86.1437 245.371 86.3825C246.283 86.5212 247.213 86.4766 248.108 86.2514C249.002 86.0262 249.844 85.6247 250.584 85.0701C250.94 84.8203 251.242 84.5008 251.472 84.1307C251.998 83.2117 251.775 82.0566 251.971 81.0136C252.337 79.0585 254.185 77.4179 253.866 75.4546Z" fill="#2F2E41"/>
<path d="M38.5461 68.0273L38.1101 67.436L80.1477 35.8442L121.366 66.8783L163.148 21.0869L163.222 21.0559L203.772 4.16248L204.05 4.84405L163.576 21.7062L121.456 67.8666L80.1474 36.7636L38.5461 68.0273Z" fill="#3F3D56"/>
</g>
<defs>
<clipPath id="clip0_280_1128">
<rect width="305" height="226" fill="white"/>
</clipPath>
</defs>
</svg>
