<svg width="305" height="203" viewBox="0 0 305 203" fill="none" xmlns="http://www.w3.org/2000/svg">
<g clip-path="url(#clip0_280_1445)">
<path d="M224.574 0.126709H0.09585V143.225H224.574V0.126709Z" fill="#E6E6E6"/>
<path d="M218.155 18.0748H6.51475V72.6252H218.155V18.0748Z" fill="white"/>
<path d="M103.916 25.9542H59.1583V28.5115H103.916V25.9542Z" fill="#E6E6E6"/>
<path d="M128.273 35.2826H59.1583V37.8399H128.273V35.2826Z" fill="#FC5404"/>
<path d="M115.485 44.0713H59.1583V46.6286H115.485V44.0713Z" fill="#E6E6E6"/>
<path d="M92.0412 52.8268H59.1583V55.3841H92.0412V52.8268Z" fill="#E6E6E6"/>
<path d="M108.787 61.5822H59.1583V64.1395H108.787V61.5822Z" fill="#E6E6E6"/>
<path d="M44.2393 25.0452H38.7588V30.5002H44.2393V25.0452Z" fill="#E6E6E6"/>
<path d="M44.2393 33.8337H38.7588V39.2888H44.2393V33.8337Z" fill="#FC5404"/>
<path d="M44.2393 42.6224H38.7588V48.0775H44.2393V42.6224Z" fill="#E6E6E6"/>
<path d="M44.2393 51.4111H38.7588V56.8662H44.2393V51.4111Z" fill="#E6E6E6"/>
<path d="M44.2393 60.1998H38.7588V65.6549H44.2393V60.1998Z" fill="#E6E6E6"/>
<path d="M188.558 37.4705H170.29V55.6539H188.558V37.4705Z" fill="#E6E6E6"/>
<path d="M218.155 80.2015H6.51475V134.752H218.155V80.2015Z" fill="white"/>
<path d="M53.6778 85.0497H48.1974V90.5047H53.6778V85.0497Z" fill="#E6E6E6"/>
<path d="M44.2393 85.0497H38.7588V90.5047H44.2393V85.0497Z" fill="#FC5404"/>
<path d="M131.681 96.9788C130.011 94.164 127.693 91.784 124.918 90.0344C122.144 88.2849 118.992 87.2159 115.721 86.9151C112.451 86.6144 109.155 87.0906 106.106 88.3046C103.056 89.5186 100.34 91.4358 98.1794 93.8984L96.8438 92.7367C99.1881 90.0632 102.137 87.9817 105.447 86.6636C108.757 85.3455 112.334 84.8284 115.884 85.1547C119.434 85.4811 122.856 86.6416 125.867 88.5409C128.879 90.4401 131.395 93.0238 133.207 96.0796L131.681 96.9788Z" fill="#E6E6E6"/>
<path d="M132.517 119.977L131.045 118.992C133.225 115.755 134.441 111.972 134.554 108.077C134.667 104.182 133.671 100.335 131.681 96.9788L133.207 96.0796C135.368 99.7224 136.449 103.899 136.327 108.127C136.205 112.356 134.884 116.464 132.517 119.977Z" fill="#FC5404"/>
<path d="M97.0286 122.436C93.3624 118.361 91.3199 113.092 91.2859 107.621C91.2519 102.151 93.2286 96.8571 96.8438 92.7367L98.1794 93.8984C94.8491 97.6942 93.0282 102.571 93.0595 107.611C93.0909 112.65 94.9724 117.504 98.3497 121.259L97.0286 122.436Z" fill="#FC5404"/>
<path d="M113.811 129.904C110.644 129.901 107.512 129.235 104.621 127.949C101.73 126.662 99.1426 124.784 97.0286 122.436L98.3497 121.258C100.459 123.604 103.078 125.438 106.008 126.622C108.937 127.805 112.1 128.307 115.255 128.088C118.409 127.87 121.471 126.936 124.208 125.36C126.945 123.783 129.283 121.605 131.045 118.992L132.517 119.977C130.458 123.033 127.674 125.538 124.411 127.269C121.149 129 117.508 129.905 113.811 129.904Z" fill="#FC5404"/>
<path d="M188.558 96.8698H170.29V115.053H188.558V96.8698Z" fill="#E6E6E6"/>
<path d="M56.2658 108.689H37.9976V126.872H56.2658V108.689Z" fill="#E6E6E6"/>
<path d="M224.478 0H0V9.49239H224.478V0Z" fill="#FC5404"/>
<path d="M7.08688 6.61231C8.06307 6.61231 8.85442 5.82463 8.85442 4.85297C8.85442 3.88131 8.06307 3.09363 7.08688 3.09363C6.11069 3.09363 5.31933 3.88131 5.31933 4.85297C5.31933 5.82463 6.11069 6.61231 7.08688 6.61231Z" fill="white"/>
<path d="M13.796 6.61231C14.7722 6.61231 15.5636 5.82463 15.5636 4.85297C15.5636 3.88131 14.7722 3.09363 13.796 3.09363C12.8199 3.09363 12.0285 3.88131 12.0285 4.85297C12.0285 5.82463 12.8199 6.61231 13.796 6.61231Z" fill="white"/>
<path d="M20.5052 6.61231C21.4814 6.61231 22.2728 5.82463 22.2728 4.85297C22.2728 3.88131 21.4814 3.09363 20.5052 3.09363C19.529 3.09363 18.7377 3.88131 18.7377 4.85297C18.7377 5.82463 19.529 6.61231 20.5052 6.61231Z" fill="white"/>
<path d="M260.72 198.071H265.265L267.427 180.624L260.719 180.624L260.72 198.071Z" fill="#FFB8B8"/>
<path d="M259.561 196.594L268.511 196.594H268.511C270.024 196.594 271.474 197.192 272.544 198.257C273.614 199.322 274.214 200.765 274.215 202.271V202.455L259.561 202.456L259.561 196.594Z" fill="#2F2E41"/>
<path d="M249.402 180.942L252.756 183.995L266.181 172.572L261.232 168.067L249.402 180.942Z" fill="#FFB8B8"/>
<path d="M249.548 179.073L256.152 185.085L256.153 185.086C257.269 186.102 257.934 187.518 258.001 189.022C258.069 190.526 257.533 191.995 256.512 193.106L256.387 193.242L245.574 183.399L249.548 179.073Z" fill="#2F2E41"/>
<path d="M267.863 136.801L266.575 162.442L269.795 190.326L260.135 191.608L254.017 156.352L252.085 132.314L267.863 136.801Z" fill="#2F2E41"/>
<path d="M282.997 127.507C282.997 127.507 286.861 152.827 278.811 161.16C270.761 169.493 259.813 184.236 259.813 184.236L252.085 174.621L271.727 153.788L267.863 139.686L252.085 132.314L254.661 114.686L277.845 114.366L282.997 127.507Z" fill="#2F2E41"/>
<path d="M265.266 68.8536C269.621 68.8536 273.152 65.3392 273.152 61.004C273.152 56.6688 269.621 53.1544 265.266 53.1544C260.911 53.1544 257.38 56.6688 257.38 61.004C257.38 65.3392 260.911 68.8536 265.266 68.8536Z" fill="#FFB8B8"/>
<path d="M271.807 72.16L273.015 73.9816L276.235 82.9559L273.659 117.891L258.525 118.212L256.593 78.1482L260.64 73.1128L271.807 72.16Z" fill="#CCCCCC"/>
<path d="M250.475 79.1098L247.899 78.7893C247.899 78.7893 247.255 79.1098 246.933 81.3534C246.611 83.5969 242.747 103.468 242.747 103.468L247.899 127.827L253.695 120.135L250.153 106.674L253.695 93.2122L250.475 79.1098Z" fill="#2F2E41"/>
<path d="M283.319 78.7894H285.251L290.081 104.75L285.573 124.943L281.065 117.571L282.353 109.558L281.709 102.507L279.455 98.3401L283.319 78.7894Z" fill="#2F2E41"/>
<path d="M269.926 61.0039L268.492 60.6471C268.492 60.6471 267.417 54.5815 264.908 55.2951C262.398 56.0087 255.946 56.7223 255.946 53.8679C255.946 51.0135 262.04 48.5159 265.624 48.8727C269.209 49.2295 273.787 50.4132 274.945 55.6519C276.8 64.0498 271.117 66.171 271.117 66.171L271.211 65.8652C271.474 65.0162 271.493 64.111 271.266 63.252C271.039 62.3929 270.575 61.6142 269.926 61.0039Z" fill="#2F2E41"/>
<path d="M248.221 78.7893L258.525 74.6226L260.94 72.8599L268.185 104.75L273.015 90.3275L271.566 71.8983L284.929 78.7892L280.421 100.584L279.777 108.917L281.709 115.648C281.709 115.648 288.471 120.455 286.217 125.583C283.963 130.712 281.387 131.032 281.387 131.032C281.387 131.032 270.439 120.776 269.795 118.212C269.151 115.648 268.185 111.161 268.185 111.161C268.185 111.161 262.711 131.673 256.271 131.353C249.831 131.032 249.831 124.301 249.831 124.301L251.441 117.25L254.017 109.879L252.729 97.6992L248.221 78.7893Z" fill="#2F2E41"/>
<path d="M304.681 203H219.175C219.09 203 219.009 202.967 218.949 202.907C218.889 202.847 218.856 202.767 218.856 202.682C218.856 202.598 218.889 202.517 218.949 202.458C219.009 202.398 219.09 202.365 219.175 202.365H304.681C304.766 202.365 304.847 202.398 304.907 202.458C304.966 202.517 305 202.598 305 202.682C305 202.767 304.966 202.847 304.907 202.907C304.847 202.967 304.766 203 304.681 203Z" fill="#CCCCCC"/>
</g>
<defs>
<clipPath id="clip0_280_1445">
<rect width="305" height="203" fill="white"/>
</clipPath>
</defs>
</svg>
