<svg width="305" height="206" viewBox="0 0 305 206" fill="none" xmlns="http://www.w3.org/2000/svg">
<g clip-path="url(#clip0_280_1303)">
<path d="M197.212 46.7001C202.987 46.7001 207.669 42.0101 207.669 36.2247C207.669 30.4394 202.987 25.7494 197.212 25.7494C191.436 25.7494 186.755 30.4394 186.755 36.2247C186.755 42.0101 191.436 46.7001 197.212 46.7001Z" fill="#F2F2F2"/>
<path d="M237.459 109.681L58.498 0L9.55888e-06 95.7786L178.961 205.46L237.459 109.681Z" fill="#F2F2F2"/>
<path d="M221.558 140.062C219.924 136.297 217.407 132.991 212.375 130.208C209.774 128.735 206.98 127.633 204.074 126.935C206.029 126.025 207.827 124.809 209.401 123.334C211.715 121.262 213.468 118.639 214.499 115.707C215.448 112.727 215.836 109.597 215.643 106.475C215.283 100.976 214.205 95.6397 211.329 91.8097C208.453 87.9796 204.401 85.0334 199.042 82.9711C194.924 81.3998 190.709 80.4177 184.173 80.0576V59.1396L171.101 67.3235V80.0904H160.644V66.6688L147.246 59.1396V80.0904H118.782L127.932 95.8034C130.759 95.8067 132.674 96.0685 133.651 96.5563C134.563 96.9474 135.313 97.6409 135.775 98.5204C136.2 99.3388 136.396 101.27 136.396 104.249V160.947C136.396 163.893 136.2 165.792 135.775 166.643C135.35 167.494 135.122 168.247 134.109 168.705C133.096 169.164 133.063 169.131 130.253 169.131H130.22L118.782 184.844H147.213V205.795H160.611V184.844H171.069V205.795H184.14V184.713C192.637 184.287 198.682 183.174 203.552 181.341C209.859 178.984 214.695 175.547 218.159 171.03C221.623 166.512 223.028 159.605 223.322 154.269C223.551 149.522 223.028 143.401 221.558 140.062ZM160.611 97.7675H160.615V97.3321H169.752C174.892 97.3321 192.022 95.6168 192.307 109.631C192.594 123.645 169.752 123.072 169.752 123.072H160.615V121.992H160.611V97.7675ZM160.611 137.705H171.069C173.193 137.705 180.5 138.029 183.16 138.15C184.244 138.189 185.318 138.381 186.349 138.72C186.725 138.847 187.081 138.991 187.467 139.152C189.079 139.673 190.599 140.444 191.973 141.437C192.869 142.029 193.657 142.771 194.303 143.63C194.583 144.017 194.841 144.421 195.075 144.838C195.693 145.887 196.153 147.022 196.437 148.206C196.749 149.35 196.91 150.53 196.918 151.716C196.918 154.266 196.447 156.377 195.287 158.164C193.715 160.803 191.137 162.672 188.235 163.991C180.732 167.409 171.069 167.167 171.069 167.167H160.611V137.705Z" fill="#3F3D56"/>
<path opacity="0.3" d="M200.042 36.6655C199.943 36.4202 199.76 36.2177 199.527 36.0937C199.382 36.0084 199.225 35.9444 199.062 35.9037C199.172 35.8505 199.272 35.78 199.36 35.6947C199.491 35.5732 199.589 35.4211 199.646 35.252C199.699 35.0787 199.721 34.8973 199.71 34.7163C199.709 34.4157 199.625 34.1212 199.468 33.8652C199.293 33.6312 199.054 33.453 198.779 33.3522C198.513 33.2488 198.231 33.1916 197.946 33.1831V31.9691L197.213 32.4441V33.185H196.627V32.4061L195.876 31.9691V33.185H194.28L194.793 34.0969C194.902 34.0895 195.011 34.1043 195.114 34.1406C195.165 34.1638 195.207 34.204 195.233 34.2546C195.264 34.3625 195.276 34.4751 195.268 34.5871V37.8776C195.275 37.989 195.264 38.1009 195.233 38.2081C195.209 38.2575 195.196 38.3012 195.139 38.3278C195.082 38.3544 195.081 38.3525 194.923 38.3525H194.921L194.28 39.2645H195.874V40.4803H196.625V39.2645H197.211V40.4803H197.944V39.2569C198.315 39.2502 198.682 39.1842 199.032 39.0612C199.357 38.9449 199.641 38.7371 199.851 38.4627C200.034 38.1708 200.134 37.8346 200.141 37.49C200.16 37.2114 200.126 36.9316 200.042 36.6655ZM196.625 34.2109L196.625 34.1857H197.137C197.426 34.1857 198.386 34.0861 198.402 34.8994C198.418 35.7128 197.137 35.6795 197.137 35.6795H196.625V35.6168L196.625 34.2109ZM196.625 36.5287H197.211C197.33 36.5287 197.74 36.5475 197.889 36.5546C197.95 36.5569 198.01 36.568 198.068 36.5876C198.089 36.595 198.109 36.6034 198.131 36.6127C198.221 36.6432 198.307 36.6879 198.383 36.7453C198.434 36.78 198.478 36.823 198.514 36.8726C198.569 36.9532 198.61 37.0432 198.633 37.1382C198.651 37.2047 198.66 37.2731 198.66 37.3419C198.666 37.4728 198.635 37.6028 198.569 37.7161C198.475 37.8668 198.337 37.9848 198.174 38.0543C197.868 38.1795 197.541 38.2422 197.211 38.2386H196.625V36.5287Z" fill="#FC5404"/>
<path d="M260.821 155.753C262.938 155.753 264.654 154.034 264.654 151.913C264.654 149.793 262.938 148.074 260.821 148.074C258.704 148.074 256.988 149.793 256.988 151.913C256.988 154.034 258.704 155.753 260.821 155.753Z" fill="#FF6584"/>
<path d="M291.038 193.71V149.992" stroke="#3F3D56" stroke-width="2" stroke-miterlimit="10"/>
<path d="M291.038 156.175C294.446 156.175 297.21 153.407 297.21 149.992C297.21 146.578 294.446 143.81 291.038 143.81C287.629 143.81 284.866 146.578 284.866 149.992C284.866 153.407 287.629 156.175 291.038 156.175Z" fill="#3F3D56"/>
<path d="M278.883 174.47C269.968 188.165 272.411 205.583 272.411 205.583C272.411 205.583 289.307 200.797 298.222 187.103C307.137 173.408 304.694 155.99 304.694 155.99C304.694 155.99 287.798 160.775 278.883 174.47Z" fill="#3F3D56"/>
<path d="M272.363 205.424C272.363 205.424 272.146 205.389 271.747 205.308C271.428 205.243 270.99 205.151 270.454 205.024C265.666 203.893 252.936 200.07 244.613 190.019C234.196 177.433 234.634 159.849 234.634 159.849C234.634 159.849 250.562 162.442 261.058 173.744C261.512 174.23 261.955 174.733 262.385 175.254C271.449 186.205 272.294 200.939 272.361 204.582C272.37 205.128 272.363 205.424 272.363 205.424Z" fill="#FC5404"/>
<path d="M265.939 174.47C274.854 188.165 272.411 205.583 272.411 205.583C272.411 205.583 255.515 200.797 246.6 187.103C237.685 173.408 240.128 155.99 240.128 155.99C240.128 155.99 257.024 160.775 265.939 174.47Z" stroke="#3F3D56" stroke-width="2" stroke-miterlimit="10"/>
<path opacity="0.1" d="M272.361 204.582C272.126 204.866 271.918 205.109 271.747 205.308C271.368 205.74 271.154 205.967 271.154 205.967C271.154 205.967 270.893 205.639 270.454 205.024C268.046 201.661 260.3 189.704 260.898 175.893C260.931 175.169 260.984 174.453 261.058 173.744C261.513 174.23 261.955 174.733 262.385 175.254C271.449 186.205 272.294 200.939 272.361 204.582Z" fill="black"/>
<path d="M285.579 176.891C284.875 193.225 272.771 205.967 272.771 205.967C272.771 205.967 261.809 192.227 262.514 175.893C263.218 159.559 275.322 146.817 275.322 146.817C275.322 146.817 286.284 160.558 285.579 176.891Z" fill="#FC5404"/>
<path d="M272.771 205.505L275.432 147.483" stroke="#3F3D56" stroke-width="2" stroke-miterlimit="10"/>
<path d="M18.7812 205.568H295.252" stroke="#3F3D56" stroke-width="2" stroke-miterlimit="10"/>
<path d="M77.5 134.809C85.212 134.809 91.4637 128.547 91.4637 120.822C91.4637 113.096 85.212 106.834 77.5 106.834C69.7881 106.834 63.5364 113.096 63.5364 120.822C63.5364 128.547 69.7881 134.809 77.5 134.809Z" fill="#FC5404"/>
<path d="M53.7654 167.73C61.4773 167.73 67.7291 161.467 67.7291 153.742C67.7291 146.016 61.4773 139.754 53.7654 139.754C46.0535 139.754 39.8018 146.016 39.8018 153.742C39.8018 161.467 46.0535 167.73 53.7654 167.73Z" fill="#FC5404"/>
<path d="M24.5536 194.02C32.2655 194.02 38.5172 187.757 38.5172 180.032C38.5172 172.307 32.2655 166.044 24.5536 166.044C16.8416 166.044 10.5899 172.307 10.5899 180.032C10.5899 187.757 16.8416 194.02 24.5536 194.02Z" fill="#FC5404"/>
<path d="M24.5411 205.328V179.955" stroke="#3F3D56" stroke-width="2" stroke-miterlimit="10"/>
<path d="M24.5412 183.543C26.5194 183.543 28.1231 181.937 28.1231 179.955C28.1231 177.973 26.5194 176.367 24.5412 176.367C22.5629 176.367 20.9592 177.973 20.9592 179.955C20.9592 181.937 22.5629 183.543 24.5412 183.543Z" fill="#3F3D56"/>
<path d="M24.5411 195.593C24.5411 195.593 24.0294 184.569 13.5394 185.85L24.5411 195.593Z" fill="#3F3D56"/>
<path d="M77.5088 205.506V120.873" stroke="#3F3D56" stroke-width="2" stroke-miterlimit="10"/>
<path d="M77.5088 124.421C79.4871 124.421 81.0908 122.814 81.0908 120.833C81.0908 118.851 79.4871 117.245 77.5088 117.245C75.5305 117.245 73.9268 118.851 73.9268 120.833C73.9268 122.814 75.5305 124.421 77.5088 124.421Z" fill="#3F3D56"/>
<path d="M66.5071 185.654C68.4854 185.654 70.089 184.047 70.089 182.066C70.089 180.084 68.4854 178.478 66.5071 178.478C64.5288 178.478 62.9251 180.084 62.9251 182.066C62.9251 184.047 64.5288 185.654 66.5071 185.654Z" fill="#3F3D56"/>
<path d="M77.5088 139.161C77.5088 139.161 76.9971 128.136 66.5071 129.418L77.5088 139.161Z" fill="#3F3D56"/>
<path d="M77.5088 170.415C77.5088 170.415 76.9971 159.391 66.5071 160.672L77.5088 170.415Z" fill="#3F3D56"/>
<path d="M77.5088 204.52C77.5088 204.52 79.8115 183.091 66.5071 182.066" stroke="#3F3D56" stroke-width="2" stroke-miterlimit="10"/>
<path d="M88.5121 185.654C90.4904 185.654 92.0941 184.047 92.0941 182.066C92.0941 180.084 90.4904 178.478 88.5121 178.478C86.5338 178.478 84.9301 180.084 84.9301 182.066C84.9301 184.047 86.5338 185.654 88.5121 185.654Z" fill="#3F3D56"/>
<path d="M77.5104 204.52C77.5104 204.52 75.2077 183.091 88.5121 182.066" stroke="#3F3D56" stroke-width="2" stroke-miterlimit="10"/>
<path d="M88.7303 151.996C90.7085 151.996 92.3122 150.389 92.3122 148.407C92.3122 146.426 90.7085 144.819 88.7303 144.819C86.752 144.819 85.1483 146.426 85.1483 148.407C85.1483 150.389 86.752 151.996 88.7303 151.996Z" fill="#3F3D56"/>
<path d="M77.7286 169.719C77.7286 169.719 75.4259 149.433 88.7303 148.407" stroke="#3F3D56" stroke-width="2" stroke-miterlimit="10"/>
<path d="M53.7782 205.387V153.726" stroke="#3F3D56" stroke-width="2" stroke-miterlimit="10"/>
<path d="M53.7782 157.314C55.7564 157.314 57.3601 155.708 57.3601 153.726C57.3601 151.744 55.7564 150.138 53.7782 150.138C51.7999 150.138 50.1962 151.744 50.1962 153.726C50.1962 155.708 51.7999 157.314 53.7782 157.314Z" fill="#3F3D56"/>
<path d="M53.7781 168.339C53.7781 168.339 53.2664 157.314 42.7764 158.596L53.7781 168.339Z" fill="#3F3D56"/>
<path d="M53.7781 204.401C53.7781 204.401 56.0808 183.2 42.7764 182.175" stroke="#3F3D56" stroke-width="2" stroke-miterlimit="10"/>
<path d="M42.7764 185.763C44.7547 185.763 46.3584 184.157 46.3584 182.175C46.3584 180.193 44.7547 178.587 42.7764 178.587C40.7982 178.587 39.1945 180.193 39.1945 182.175C39.1945 184.157 40.7982 185.763 42.7764 185.763Z" fill="#3F3D56"/>
<path d="M250.479 126.902C253.727 126.902 256.361 124.264 256.361 121.01C256.361 117.755 253.727 115.117 250.479 115.117C247.23 115.117 244.596 117.755 244.596 121.01C244.596 124.264 247.23 126.902 250.479 126.902Z" fill="#F2F2F2"/>
<path opacity="0.1" d="M188.235 163.991C180.732 167.409 171.069 167.167 171.069 167.167H160.611V165.167C164.873 163.975 170.765 163.239 177.278 163.239C180.943 163.226 184.605 163.477 188.235 163.991Z" fill="black"/>
<path opacity="0.1" d="M200.806 169.786C200.806 173.403 190.271 176.333 177.278 176.333C164.284 176.333 153.749 173.403 153.749 169.786C153.749 167.982 156.37 166.348 160.611 165.167V167.167H171.069C171.069 167.167 180.732 167.409 188.235 163.991C195.709 165.085 200.806 167.268 200.806 169.786Z" fill="black"/>
<path d="M180.283 129.02H170.272V139.066H180.283V129.02Z" fill="#2F2E41"/>
<path d="M173.995 136.125C173.995 136.125 174.823 139.03 173.373 139.237C172.473 139.378 171.62 139.734 170.887 140.275L173.58 143.803H178.552L181.66 140.69C181.66 140.69 177.516 137.577 178.345 135.709C179.174 133.842 173.995 136.125 173.995 136.125Z" fill="#FFB9B9"/>
<path opacity="0.1" d="M173.995 136.125C173.995 136.125 174.823 139.03 173.373 139.237C172.473 139.378 171.62 139.734 170.887 140.275L173.58 143.803H178.552L181.66 140.69C181.66 140.69 177.516 137.577 178.345 135.709C179.174 133.842 173.995 136.125 173.995 136.125Z" fill="black"/>
<path d="M175.237 172.233L180.002 173.893L183.317 174.101L183.11 171.195L176.273 169.17L175.237 172.233Z" fill="#FFB9B9"/>
<path d="M181.349 171.611C181.349 171.611 181.349 174.516 181.763 174.516C182.177 174.516 187.771 173.893 189.428 174.516C191.086 175.138 193.571 172.856 192.328 171.611C191.085 170.365 189.058 168.498 187.793 168.913C186.528 169.328 181.349 170.365 181.349 170.365L181.349 171.611Z" fill="#2F2E41"/>
<path d="M166.122 168.913C166.122 168.913 163.636 173.893 165.294 174.308C166.951 174.723 168.815 174.101 169.023 173.893C169.23 173.686 172.13 172.856 172.544 173.271C172.959 173.686 172.959 171.611 172.959 171.611L166.122 168.913Z" fill="#2F2E41"/>
<path d="M168.194 162.065C168.194 162.065 164.258 167.46 167.158 168.913C170.058 170.365 183.938 170.365 184.974 168.913C186.01 167.46 186.424 162.895 184.974 162.48C183.524 162.065 168.194 162.065 168.194 162.065Z" fill="#2F2E41"/>
<path opacity="0.2" d="M168.194 162.065C168.194 162.065 164.258 167.46 167.158 168.913C170.058 170.365 183.938 170.365 184.974 168.913C186.01 167.46 186.424 162.895 184.974 162.48C183.524 162.065 168.194 162.065 168.194 162.065Z" fill="black"/>
<path d="M175.652 137.577C178.283 137.577 180.417 135.44 180.417 132.804C180.417 130.168 178.283 128.031 175.652 128.031C173.02 128.031 170.887 130.168 170.887 132.804C170.887 135.44 173.02 137.577 175.652 137.577Z" fill="#FFB9B9"/>
<path d="M168.194 140.275L172.337 139.445C172.337 139.445 173.373 142.765 176.688 142.143C180.002 141.52 180.831 139.445 180.831 139.445C180.831 139.445 183.317 140.482 183.524 140.482C183.731 140.482 186.424 141.52 186.424 142.143C186.424 142.765 183.317 148.991 183.317 148.991L183.731 160.197L168.401 159.782L169.437 148.783L168.194 140.275Z" fill="#FC5404"/>
<path d="M165.915 145.67C165.915 145.67 164.672 156.669 165.501 157.499C166.33 158.329 169.644 160.612 169.644 160.612V158.122L167.987 155.009L169.644 147.746L165.915 145.67Z" fill="#FFB9B9"/>
<path d="M187.357 145.359C187.357 145.359 186.631 156.669 186.631 157.084C186.631 157.499 184.767 158.952 184.145 158.952C183.524 158.952 183.11 157.914 183.11 157.914L184.56 156.254L183.524 147.746L187.357 145.359Z" fill="#FFB9B9"/>
<path d="M185.388 161.234C185.388 161.234 194.711 156.046 194.918 161.234C195.125 166.423 190.153 168.498 190.153 168.498C190.153 168.498 177.309 172.356 176.791 170.946C176.273 169.535 175.237 167.253 176.066 167.045C176.895 166.838 177.931 166.423 178.345 166.838C178.759 167.253 183.938 163.725 183.938 163.725L185.388 161.234Z" fill="#2F2E41"/>
<path opacity="0.2" d="M189.739 160.612C189.739 160.612 187.874 161.442 187.253 162.065C186.631 162.687 183.938 163.725 183.938 163.725" stroke="black" stroke-width="2" stroke-miterlimit="10"/>
<path d="M169.437 140.69L168.194 140.275C168.194 140.275 163.636 145.048 165.087 146.293C166.537 147.538 167.365 147.953 167.78 148.368C168.194 148.783 170.266 148.991 170.266 148.991L169.437 140.69Z" fill="#FC5404"/>
<path d="M184.56 141.728L186.424 142.143C186.424 142.143 187.874 145.255 188.289 145.67C188.703 146.085 187.667 145.878 187.046 146.708C186.424 147.538 185.803 148.991 184.56 148.991C183.317 148.991 181.66 146.916 181.66 146.916L184.56 141.728Z" fill="#FC5404"/>
<path d="M168.608 163.102C168.608 163.102 160.736 157.499 158.043 161.65C155.35 165.8 169.644 171.403 171.716 172.233C173.787 173.063 175.652 173.893 175.652 173.893C175.652 173.893 177.516 169.328 177.516 168.498C177.516 167.668 176.066 167.668 175.652 167.668C175.238 167.668 173.373 167.253 172.959 166.63C172.544 166.007 168.608 163.102 168.608 163.102Z" fill="#2F2E41"/>
<path opacity="0.2" d="M164.258 161.65C164.258 161.65 166.33 163.31 168.194 163.725C170.058 164.14 170.68 165.177 170.68 165.177" stroke="black" stroke-width="2" stroke-miterlimit="10"/>
<path d="M167.179 153.847L167.345 162.633C167.35 162.924 167.47 163.2 167.678 163.402C167.886 163.604 168.165 163.716 168.455 163.713L184.778 163.529C185.056 163.526 185.323 163.417 185.524 163.225C185.725 163.032 185.846 162.77 185.862 162.492L186.357 153.89C186.366 153.74 186.344 153.59 186.293 153.45C186.242 153.309 186.162 153.18 186.06 153.071C185.957 152.962 185.833 152.875 185.696 152.816C185.559 152.757 185.411 152.726 185.261 152.726H168.277C168.131 152.726 167.987 152.755 167.852 152.812C167.718 152.869 167.596 152.951 167.493 153.056C167.391 153.16 167.311 153.284 167.257 153.42C167.203 153.555 167.177 153.701 167.179 153.847Z" fill="#575A89"/>
<path d="M165.291 140.327C165.736 139.344 166.333 138.422 166.618 137.382C166.959 136.135 166.826 134.815 166.786 133.522C166.721 132.379 166.818 131.233 167.074 130.117C167.335 128.996 167.919 127.976 168.755 127.186C170.926 125.245 174.899 125.105 177.55 125.914C178.595 126.232 179.708 126.839 179.968 127.902C180.007 128.063 180.024 128.228 180.068 128.387C180.285 129.179 181.093 129.68 181.385 130.447C181.762 131.439 181.18 132.518 181.104 133.577C181.016 134.813 181.622 135.981 182.22 137.066C182.576 137.711 182.945 138.398 182.91 139.134C182.881 139.537 182.758 139.927 182.553 140.274C182.172 140.904 181.638 141.426 181 141.792C180.362 142.159 179.642 142.356 178.907 142.368C178.43 142.406 177.952 142.293 177.542 142.045C176.895 141.598 176.705 140.7 176.84 139.925C176.975 139.149 177.368 138.448 177.676 137.724C177.77 137.502 177.855 137.276 177.934 137.048C178.888 136.515 179.624 135.66 180.01 134.636C180.397 133.612 180.41 132.484 180.047 131.451C179.684 130.418 178.968 129.547 178.026 128.992C177.084 128.436 175.977 128.232 174.899 128.415C173.821 128.598 172.843 129.157 172.137 129.992C171.43 130.828 171.041 131.887 171.039 132.982C171.036 134.077 171.419 135.137 172.122 135.976C172.824 136.816 173.799 137.379 174.876 137.568C175.108 138.739 175.003 139.952 174.572 141.065C174.18 141.971 173.688 142.83 173.106 143.626C172.867 144.034 172.55 144.391 172.172 144.674C171.922 144.821 171.655 144.936 171.376 145.014C170.206 145.391 168.974 145.694 167.756 145.525C166.539 145.355 165.333 144.62 164.918 143.461C164.555 142.445 164.847 141.31 165.291 140.327Z" fill="#2F2E41"/>
<path d="M175.421 132.995C178.214 132.995 180.478 131.709 180.478 130.124C180.478 128.539 178.214 127.254 175.421 127.254C172.628 127.254 170.364 128.539 170.364 130.124C170.364 131.709 172.628 132.995 175.421 132.995Z" fill="#2F2E41"/>
<path opacity="0.3" d="M252.678 121.352C252.601 121.162 252.459 121.004 252.278 120.908C252.165 120.842 252.043 120.792 251.916 120.76C252.002 120.719 252.08 120.664 252.148 120.598C252.249 120.503 252.326 120.385 252.37 120.254C252.411 120.119 252.428 119.978 252.42 119.837C252.419 119.604 252.354 119.375 252.232 119.176C252.096 118.994 251.91 118.856 251.697 118.778C251.49 118.697 251.271 118.653 251.049 118.646V117.703L250.48 118.072V118.648H250.024V118.042L249.44 117.703V118.648H248.201L248.599 119.356C248.684 119.35 248.768 119.362 248.848 119.39C248.888 119.408 248.921 119.439 248.941 119.479C248.965 119.563 248.974 119.65 248.968 119.737V122.294C248.974 122.381 248.965 122.468 248.941 122.551C248.922 122.589 248.912 122.623 248.868 122.644C248.824 122.665 248.823 122.663 248.7 122.663H248.699L248.201 123.372H249.439V124.317H250.023V123.372H250.478V124.317H251.048V123.366C251.336 123.361 251.621 123.309 251.893 123.214C252.146 123.123 252.367 122.962 252.53 122.749C252.672 122.522 252.749 122.261 252.754 121.993C252.769 121.776 252.743 121.559 252.678 121.352ZM250.023 119.445L250.023 119.425H250.421C250.645 119.425 251.391 119.348 251.403 119.98C251.416 120.612 250.421 120.586 250.421 120.586H250.023V120.537L250.023 119.445ZM250.023 121.246H250.478C250.571 121.246 250.889 121.26 251.005 121.266C251.052 121.268 251.099 121.276 251.144 121.292C251.16 121.297 251.176 121.304 251.193 121.311C251.263 121.335 251.329 121.37 251.389 121.414C251.428 121.441 251.462 121.475 251.49 121.513C251.533 121.576 251.565 121.646 251.583 121.719C251.597 121.771 251.604 121.824 251.604 121.878C251.609 121.979 251.584 122.08 251.533 122.169C251.46 122.286 251.353 122.377 251.226 122.431C250.989 122.529 250.734 122.577 250.478 122.575H250.023V121.246Z" fill="#FC5404"/>
<path d="M21.072 147.525C24.3207 147.525 26.9543 144.887 26.9543 141.633C26.9543 138.379 24.3207 135.741 21.072 135.741C17.8234 135.741 15.1898 138.379 15.1898 141.633C15.1898 144.887 17.8234 147.525 21.072 147.525Z" fill="#F2F2F2"/>
<path opacity="0.3" d="M23.271 141.976C23.194 141.785 23.0524 141.628 22.871 141.531C22.7581 141.465 22.6364 141.415 22.5094 141.384C22.595 141.342 22.6733 141.287 22.7415 141.221C22.8428 141.127 22.9192 141.009 22.9635 140.877C23.0049 140.743 23.0218 140.602 23.0134 140.461C23.0126 140.227 22.9476 139.998 22.8254 139.799C22.6891 139.618 22.5033 139.479 22.2902 139.401C22.0833 139.321 21.8643 139.276 21.6425 139.27V138.326L21.0731 138.695V139.271H20.6175V138.666L20.0339 138.326V139.271H18.7939L19.1925 139.98C19.277 139.974 19.3618 139.985 19.4417 140.014C19.4818 140.032 19.5144 140.063 19.5342 140.102C19.5585 140.186 19.5676 140.273 19.5612 140.36V142.917C19.5674 143.004 19.5583 143.091 19.5342 143.174C19.5157 143.213 19.5057 143.247 19.4616 143.267C19.4175 143.288 19.416 143.286 19.2936 143.286H19.2922L18.794 143.995H20.0325V144.94H20.6161V143.995H21.0716V144.94H21.6411V143.989C21.9292 143.984 22.2147 143.933 22.4867 143.837C22.7391 143.747 22.96 143.585 23.123 143.372C23.265 143.145 23.3428 142.884 23.3479 142.616C23.3629 142.4 23.3368 142.182 23.271 141.976ZM20.6161 140.068L20.6163 140.049H21.0143C21.2382 140.049 21.9844 139.971 21.9968 140.603C22.0093 141.235 21.0143 141.209 21.0143 141.209H20.6163V141.161L20.6161 140.068ZM20.6161 141.869H21.0717C21.1642 141.869 21.4825 141.884 21.5984 141.889C21.6457 141.891 21.6925 141.9 21.7373 141.915C21.7537 141.921 21.7692 141.927 21.786 141.935C21.8565 141.958 21.9228 141.993 21.9823 142.038C22.0215 142.064 22.0559 142.098 22.0838 142.136C22.127 142.199 22.1584 142.269 22.1768 142.343C22.1903 142.395 22.1974 142.448 22.1977 142.501C22.2024 142.603 22.1777 142.704 22.1266 142.792C22.0535 142.909 21.9463 143.001 21.8194 143.055C21.5822 143.152 21.328 143.201 21.0716 143.198H20.6161L20.6161 141.869Z" fill="#FC5404"/>
</g>
<defs>
<clipPath id="clip0_280_1303">
<rect width="305" height="206" fill="white"/>
</clipPath>
</defs>
</svg>
